# Blender v2.78 (sub 0) OBJ File: ''
# www.blender.org
mtllib Sacrifial Doll.mtl
o Cylinder
v -0.076091 0.005272 1.735281
v -0.415991 0.265286 1.701804
v -0.076091 0.265286 1.735281
v -0.415991 0.005272 1.701804
v -0.742829 0.265286 1.602658
v -0.742829 0.005272 1.602658
v -1.044045 0.265286 1.441655
v -1.044045 0.005272 1.441655
v -1.308063 0.265286 1.224982
v -1.308063 0.005272 1.224982
v -1.524736 0.265286 0.960964
v -1.524736 0.005272 0.960964
v -1.685739 0.265286 0.659748
v -1.685739 0.005272 0.659748
v -1.784885 0.265286 0.332910
v -1.784885 0.005272 0.332910
v -1.818362 0.265286 -0.006990
v -1.818362 0.005272 -0.006990
v -1.784885 0.265286 -0.346890
v -1.784885 0.005272 -0.346890
v -1.685739 0.265286 -0.673728
v -1.685739 0.005272 -0.673728
v -1.524736 0.265286 -0.974944
v -1.524736 0.005272 -0.974944
v -1.308063 0.265286 -1.238962
v -1.308063 0.005272 -1.238962
v -1.044045 0.265286 -1.455636
v -1.044045 0.005272 -1.455636
v -0.742829 0.265286 -1.616639
v -0.742829 0.005272 -1.616639
v -0.415991 0.265286 -1.715784
v -0.415991 0.005272 -1.715784
v -0.076090 0.265286 -1.749261
v -0.076090 0.005272 -1.749261
v 0.263810 0.265286 -1.715784
v 0.263810 0.005272 -1.715784
v 0.590648 0.265286 -1.616638
v 0.590648 0.005272 -1.616638
v 0.891864 0.265286 -1.455635
v 0.891864 0.005272 -1.455635
v 1.155882 0.265286 -1.238961
v 1.155882 0.005272 -1.238961
v 1.372555 0.265286 -0.974943
v 1.372555 0.005272 -0.974943
v 1.533558 0.265286 -0.673727
v 1.533558 0.005272 -0.673727
v 1.632703 0.265286 -0.346889
v 1.632703 0.005272 -0.346889
v 1.666180 0.265286 -0.006988
v 1.666180 0.005272 -0.006988
v 1.632703 0.265286 0.332912
v 1.632703 0.005272 0.332912
v 1.533557 0.265286 0.659750
v 1.533557 0.005272 0.659750
v 1.372553 0.265286 0.960966
v 1.372553 0.005272 0.960966
v 1.155879 0.265286 1.224983
v 1.155879 0.005272 1.224983
v 0.891861 0.265286 1.441657
v 0.891861 0.005272 1.441657
v 0.590645 0.265286 1.602659
v 0.590645 0.005272 1.602659
v 0.263807 0.265286 1.701804
v 0.263807 0.005272 1.701804
v -0.076091 0.017218 1.722599
v -0.076091 0.253339 1.722599
v -0.413517 0.253339 1.689366
v -0.413517 0.017218 1.689366
v -0.737976 0.253339 1.590942
v -0.737976 0.017218 1.590942
v -1.037000 0.253339 1.431111
v -1.037000 0.017218 1.431111
v -1.299096 0.253339 1.216015
v -1.299096 0.017218 1.216015
v -1.514192 0.253339 0.953919
v -1.514192 0.017218 0.953919
v -1.674023 0.253339 0.654895
v -1.674023 0.017218 0.654895
v -1.772447 0.253339 0.330436
v -1.772447 0.017218 0.330436
v -1.805680 0.253339 -0.006990
v -1.805680 0.017218 -0.006990
v -1.772447 0.253339 -0.344416
v -1.772447 0.017218 -0.344416
v -1.674023 0.253339 -0.668875
v -1.674023 0.017218 -0.668875
v -1.514192 0.253339 -0.967899
v -1.514192 0.017218 -0.967899
v -1.299096 0.253339 -1.229995
v -1.299096 0.017218 -1.229995
v -1.037000 0.253339 -1.445091
v -1.037000 0.017218 -1.445091
v -0.737976 0.253339 -1.604922
v -0.737976 0.017218 -1.604922
v -0.413517 0.253339 -1.703346
v -0.413517 0.017218 -1.703346
v -0.076090 0.253339 -1.736580
v -0.076090 0.017218 -1.736580
v 0.261336 0.253339 -1.703346
v 0.261336 0.017218 -1.703346
v 0.585795 0.253339 -1.604922
v 0.585795 0.017218 -1.604922
v 0.884819 0.253339 -1.445091
v 0.884819 0.017218 -1.445091
v 1.146915 0.253339 -1.229994
v 1.146915 0.017218 -1.229994
v 1.362011 0.253339 -0.967898
v 1.362011 0.017218 -0.967898
v 1.521842 0.253339 -0.668874
v 1.521842 0.017218 -0.668874
v 1.620265 0.253339 -0.344415
v 1.620265 0.017218 -0.344415
v 1.653499 0.253339 -0.006988
v 1.653499 0.017218 -0.006988
v 1.620265 0.253339 0.330438
v 1.620265 0.017218 0.330438
v 1.521841 0.253339 0.654897
v 1.521841 0.017218 0.654897
v 1.362009 0.253339 0.953920
v 1.362009 0.017218 0.953920
v 1.146912 0.253339 1.216016
v 1.146912 0.017218 1.216016
v 0.884816 0.253339 1.431112
v 0.884816 0.017218 1.431112
v 0.585792 0.253339 1.590943
v 0.585792 0.017218 1.590943
v 0.261333 0.253339 1.689366
v 0.261333 0.017218 1.689366
vn 0.0980 0.0000 -0.9952
vn 0.2903 0.0000 -0.9569
vn 0.4714 0.0000 -0.8819
vn 0.6344 0.0000 -0.7730
vn 0.7730 0.0000 -0.6344
vn 0.8819 0.0000 -0.4714
vn 0.9569 -0.0000 -0.2903
vn 0.9952 0.0000 -0.0980
vn 0.9952 -0.0000 0.0980
vn 0.9569 0.0000 0.2903
vn 0.8819 0.0000 0.4714
vn 0.7730 0.0000 0.6344
vn 0.6344 0.0000 0.7730
vn 0.4714 0.0000 0.8819
vn 0.2903 0.0000 0.9569
vn 0.0980 0.0000 0.9952
vn -0.0980 0.0000 0.9952
vn -0.2903 0.0000 0.9569
vn -0.4714 0.0000 0.8819
vn -0.6344 0.0000 0.7730
vn -0.7730 0.0000 0.6344
vn -0.8819 0.0000 0.4714
vn -0.9569 0.0000 0.2903
vn -0.9952 0.0000 0.0980
vn -0.9952 -0.0000 -0.0980
vn -0.9569 0.0000 -0.2903
vn -0.8819 0.0000 -0.4714
vn -0.7730 0.0000 -0.6344
vn -0.6344 0.0000 -0.7730
vn -0.4714 0.0000 -0.8819
vn 0.0000 1.0000 0.0000
vn -0.2903 0.0000 -0.9569
vn -0.0980 0.0000 -0.9952
vn 0.0000 -1.0000 -0.0000
usemtl Material.001
s 1
f 1//1 2//1 3//1
f 4//2 5//2 2//2
f 6//3 7//3 5//3
f 8//4 9//4 7//4
f 10//5 11//5 9//5
f 12//6 13//6 11//6
f 14//7 15//7 13//7
f 16//8 17//8 15//8
f 18//9 19//9 17//9
f 20//10 21//10 19//10
f 22//11 23//11 21//11
f 24//12 25//12 23//12
f 26//13 27//13 25//13
f 28//14 29//14 27//14
f 30//15 31//15 29//15
f 32//16 33//16 31//16
f 34//17 35//17 33//17
f 36//18 37//18 35//18
f 38//19 39//19 37//19
f 40//20 41//20 39//20
f 42//21 43//21 41//21
f 44//22 45//22 43//22
f 46//23 47//23 45//23
f 48//24 49//24 47//24
f 50//25 51//25 49//25
f 52//26 53//26 51//26
f 54//27 55//27 53//27
f 56//28 57//28 55//28
f 58//29 59//29 57//29
f 60//30 61//30 59//30
f 38//31 22//31 6//31
f 62//32 63//32 61//32
f 64//33 3//33 63//33
f 31//34 47//34 15//34
f 1//1 4//1 2//1
f 4//2 6//2 5//2
f 6//3 8//3 7//3
f 8//4 10//4 9//4
f 10//5 12//5 11//5
f 12//6 14//6 13//6
f 14//7 16//7 15//7
f 16//8 18//8 17//8
f 18//9 20//9 19//9
f 20//10 22//10 21//10
f 22//11 24//11 23//11
f 24//12 26//12 25//12
f 26//13 28//13 27//13
f 28//14 30//14 29//14
f 30//15 32//15 31//15
f 32//16 34//16 33//16
f 34//17 36//17 35//17
f 36//18 38//18 37//18
f 38//19 40//19 39//19
f 40//20 42//20 41//20
f 42//21 44//21 43//21
f 44//22 46//22 45//22
f 46//23 48//23 47//23
f 48//24 50//24 49//24
f 50//25 52//25 51//25
f 52//26 54//26 53//26
f 54//27 56//27 55//27
f 56//28 58//28 57//28
f 58//29 60//29 59//29
f 60//30 62//30 61//30
f 6//31 4//31 1//31
f 1//31 64//31 6//31
f 62//31 60//31 54//31
f 58//31 56//31 54//31
f 54//31 52//31 50//31
f 50//31 48//31 54//31
f 46//31 44//31 42//31
f 42//31 40//31 46//31
f 38//31 36//31 34//31
f 34//31 32//31 38//31
f 30//31 28//31 26//31
f 26//31 24//31 22//31
f 22//31 20//31 18//31
f 18//31 16//31 22//31
f 14//31 12//31 10//31
f 10//31 8//31 6//31
f 6//31 64//31 62//31
f 60//31 58//31 54//31
f 54//31 48//31 46//31
f 46//31 40//31 38//31
f 38//31 32//31 30//31
f 30//31 26//31 38//31
f 22//31 16//31 14//31
f 14//31 10//31 6//31
f 6//31 62//31 54//31
f 54//31 46//31 6//31
f 38//31 26//31 22//31
f 22//31 14//31 6//31
f 6//31 46//31 38//31
f 62//32 64//32 63//32
f 64//33 1//33 3//33
f 63//34 3//34 2//34
f 2//34 5//34 7//34
f 7//34 9//34 11//34
f 11//34 13//34 7//34
f 15//34 17//34 19//34
f 19//34 21//34 23//34
f 23//34 25//34 31//34
f 27//34 29//34 31//34
f 31//34 33//34 35//34
f 35//34 37//34 39//34
f 39//34 41//34 43//34
f 43//34 45//34 47//34
f 47//34 49//34 51//34
f 51//34 53//34 55//34
f 55//34 57//34 59//34
f 59//34 61//34 63//34
f 63//34 2//34 15//34
f 7//34 13//34 15//34
f 15//34 19//34 31//34
f 25//34 27//34 31//34
f 31//34 35//34 47//34
f 39//34 43//34 47//34
f 47//34 51//34 63//34
f 55//34 59//34 63//34
f 2//34 7//34 15//34
f 19//34 23//34 31//34
f 35//34 39//34 47//34
f 51//34 55//34 63//34
f 63//34 15//34 47//34
f 65//17 66//17 67//17
f 68//18 67//18 69//18
f 70//19 69//19 71//19
f 72//20 71//20 73//20
f 74//21 73//21 75//21
f 76//22 75//22 77//22
f 78//23 77//23 79//23
f 80//24 79//24 81//24
f 82//25 81//25 83//25
f 84//26 83//26 85//26
f 86//27 85//27 87//27
f 88//28 87//28 89//28
f 90//29 89//29 91//29
f 92//30 91//30 93//30
f 94//32 93//32 95//32
f 96//33 95//33 97//33
f 98//1 97//1 99//1
f 100//2 99//2 101//2
f 102//3 101//3 103//3
f 104//4 103//4 105//4
f 106//5 105//5 107//5
f 108//6 107//6 109//6
f 110//7 109//7 111//7
f 112//8 111//8 113//8
f 114//9 113//9 115//9
f 116//10 115//10 117//10
f 118//11 117//11 119//11
f 120//12 119//12 121//12
f 122//13 121//13 123//13
f 124//14 123//14 125//14
f 102//34 70//34 86//34
f 126//15 125//15 127//15
f 128//16 127//16 66//16
f 95//31 79//31 111//31
f 65//17 67//17 68//17
f 68//18 69//18 70//18
f 70//19 71//19 72//19
f 72//20 73//20 74//20
f 74//21 75//21 76//21
f 76//22 77//22 78//22
f 78//23 79//23 80//23
f 80//24 81//24 82//24
f 82//25 83//25 84//25
f 84//26 85//26 86//26
f 86//27 87//27 88//27
f 88//28 89//28 90//28
f 90//29 91//29 92//29
f 92//30 93//30 94//30
f 94//32 95//32 96//32
f 96//33 97//33 98//33
f 98//1 99//1 100//1
f 100//2 101//2 102//2
f 102//3 103//3 104//3
f 104//4 105//4 106//4
f 106//5 107//5 108//5
f 108//6 109//6 110//6
f 110//7 111//7 112//7
f 112//8 113//8 114//8
f 114//9 115//9 116//9
f 116//10 117//10 118//10
f 118//11 119//11 120//11
f 120//12 121//12 122//12
f 122//13 123//13 124//13
f 124//14 125//14 126//14
f 70//34 65//34 68//34
f 65//34 70//34 128//34
f 126//34 118//34 124//34
f 122//34 118//34 120//34
f 118//34 114//34 116//34
f 114//34 118//34 112//34
f 110//34 106//34 108//34
f 106//34 110//34 104//34
f 102//34 98//34 100//34
f 98//34 102//34 96//34
f 94//34 90//34 92//34
f 90//34 86//34 88//34
f 86//34 82//34 84//34
f 82//34 86//34 80//34
f 78//34 74//34 76//34
f 74//34 70//34 72//34
f 70//34 126//34 128//34
f 124//34 118//34 122//34
f 118//34 110//34 112//34
f 110//34 102//34 104//34
f 102//34 94//34 96//34
f 94//34 102//34 90//34
f 86//34 78//34 80//34
f 78//34 70//34 74//34
f 70//34 118//34 126//34
f 118//34 70//34 110//34
f 102//34 86//34 90//34
f 86//34 70//34 78//34
f 70//34 102//34 110//34
f 126//15 127//15 128//15
f 128//16 66//16 65//16
f 127//31 67//31 66//31
f 67//31 71//31 69//31
f 71//31 75//31 73//31
f 75//31 71//31 77//31
f 79//31 83//31 81//31
f 83//31 87//31 85//31
f 87//31 95//31 89//31
f 91//31 95//31 93//31
f 95//31 99//31 97//31
f 99//31 103//31 101//31
f 103//31 107//31 105//31
f 107//31 111//31 109//31
f 111//31 115//31 113//31
f 115//31 119//31 117//31
f 119//31 123//31 121//31
f 123//31 127//31 125//31
f 127//31 79//31 67//31
f 71//31 79//31 77//31
f 79//31 95//31 83//31
f 89//31 95//31 91//31
f 95//31 111//31 99//31
f 103//31 111//31 107//31
f 111//31 127//31 115//31
f 119//31 127//31 123//31
f 67//31 79//31 71//31
f 83//31 95//31 87//31
f 99//31 111//31 103//31
f 115//31 127//31 119//31
f 127//31 111//31 79//31
